HIERARCHY
ROOT Hips
{
	OFFSET 0.00 0.00 0.00
	CHANNELS 6 Xposition Yposition Zposition Xrotation Yrotation Zrotation
	JOINT LeftUpLeg
	{
		OFFSET 4.01464 0.00000 0.00000
		CHANNELS 3 Xrotation Yrotation Zrotation
		JOINT LeftLeg
		{
			OFFSET 0.00000 -17.30941 0.00000
			CHANNELS 3 Xrotation Yrotation Zrotation
			JOINT LeftFoot
			{
				OFFSET 0.00000 -15.75446 0.00000
				CHANNELS 3 Xrotation Yrotation Zrotation
				JOINT LeftToeBase
				{
					OFFSET 0.00000 -1.78212 6.65096
					CHANNELS 3 Xrotation Yrotation Zrotation
					End Site
					{
						OFFSET 0.00000 0.00000 2.95275
					}
				}
			}
		}
	}
	JOINT RightUpLeg
	{
		OFFSET -4.01464 0.00000 0.00000
		CHANNELS 3 Xrotation Yrotation Zrotation
		JOINT RightLeg
		{
			OFFSET 0.00000 -17.30941 0.00000
			CHANNELS 3 Xrotation Yrotation Zrotation
			JOINT RightFoot
			{
				OFFSET 0.00000 -15.75446 0.00000
				CHANNELS 3 Xrotation Yrotation Zrotation
				JOINT RightToeBase
				{
					OFFSET 0.00000 -1.78212 6.65096
					CHANNELS 3 Xrotation Yrotation Zrotation
					End Site
					{
						OFFSET 0.00000 0.00000 2.95275
					}
				}
			}
		}
	}
	JOINT Spine
	{
		OFFSET 0.00000 0.03937 0.00000
		CHANNELS 3 Xrotation Yrotation Zrotation
		JOINT Spine1
		{
			OFFSET 0.00000 5.33649 0.00000
			CHANNELS 3 Xrotation Yrotation Zrotation
			JOINT Neck
			{
				OFFSET 0.00000 11.38116 0.00000
				CHANNELS 3 Xrotation Yrotation Zrotation
				JOINT Head
				{
					OFFSET 0.00000 7.87376 0.00000
					CHANNELS 3 Xrotation Yrotation Zrotation
					End Site
					{
						OFFSET 0.00000 4.52755 0.00000
					}
				}
			}
			JOINT LeftShoulder
			{
				OFFSET 0.00000 11.38116 0.00000
				CHANNELS 3 Xrotation Yrotation Zrotation
				JOINT LeftArm
				{
					OFFSET 8.27455 -0.00003 0.00000
					CHANNELS 3 Xrotation Yrotation Zrotation
					JOINT LeftForeArm
					{
						OFFSET 11.66537 -0.00004 0.00000
						CHANNELS 3 Xrotation Yrotation Zrotation
						JOINT LeftHand
						{
							OFFSET 10.36419 -0.00004 0.00000
							CHANNELS 3 Xrotation Yrotation Zrotation
							JOINT LeftHandThumb
							{
								OFFSET 0.00000 0.00000 0.00000
								CHANNELS 3 Xrotation Yrotation Zrotation
								End Site
								{
									OFFSET 0.00000 0.00000 3.93700
								}
							}
							JOINT L_Wrist_End
							{
								OFFSET 3.93700 -0.00001 0.00000
								CHANNELS 3 Xrotation Yrotation Zrotation
							}
						}
					}
				}
			}
			JOINT RightShoulder
			{
				OFFSET 0.00000 11.38116 0.00000
				CHANNELS 3 Xrotation Yrotation Zrotation
				JOINT RightArm
				{
					OFFSET -8.27455 -0.00003 0.00000
					CHANNELS 3 Xrotation Yrotation Zrotation
					JOINT RightForeArm
					{
						OFFSET -11.66537 -0.00004 0.00000
						CHANNELS 3 Xrotation Yrotation Zrotation
						JOINT RightHand
						{
							OFFSET -10.36419 -0.00004 0.00000
							CHANNELS 3 Xrotation Yrotation Zrotation
							JOINT RightHandThumb
							{
								OFFSET 0.00000 0.00000 0.00000
								CHANNELS 3 Xrotation Yrotation Zrotation
								End Site
								{
									OFFSET 0.00000 0.00000 3.93700
								}
							}
							JOINT R_Wrist_End
							{
								OFFSET -5.39369 -0.00002 0.00000
								CHANNELS 3 Xrotation Yrotation Zrotation
							}
						}
					}
				}
			}
		}
	}
}
MOTION
Frames: 8
Frame Time: 0.010000
 1.7000 34.6677 17.8348 0.9150 -1.5923 -0.6660 7.4941 13.8886 -0.1423 -1.3104 -0.0000 -0.0000 0.2182 6.5957 15.0813 -11.6644 0.0000 0.0000 10.2038 -29.3310 5.7407 -8.8284 0.0000 0.0000 6.6306 8.3291 -27.2991 -13.5947 0.0000 -0.0000 -15.7682 5.1892 0.9022 8.1558 -3.0166 1.1859 21.5938 2.5561 -3.0592 -4.6142 2.0418 0.1457 -1.8520 -1.6459 29.3436 -9.9378 -3.4351 -21.1685 0.0000 8.8465 -0.0000 15.8966 11.4497 -16.6125 -0.0000 0.0000 -0.0000 -0.0000 0.0000 -0.0000 -3.5303 7.9317 -31.9305 -4.4540 -9.1334 20.7443 0.0000 -4.8850 0.0000 1.6550 -2.6843 10.4340 -0.0000 -0.0000 0.0000 -0.0000 -0.0000 0.0000
 1.6917 34.6702 17.8286 0.9612 -1.5307 -0.6682 7.4329 13.8861 -0.1121 -1.3265 0.0000 -0.0000 0.2575 6.5118 15.0871 -11.6771 0.0000 0.0000 10.2180 -29.6211 5.8192 -8.8548 -0.0000 -0.0000 6.6230 8.5739 -27.3798 -13.4928 0.0000 -0.0000 -15.9050 5.2049 0.8982 8.3057 -3.0095 1.1261 21.1685 2.4807 -2.9789 -3.9440 2.0874 0.3104 -2.0485 -1.3930 29.2778 -9.7319 -4.2924 -21.0658 0.0000 9.3581 -0.0000 15.2408 11.2315 -17.0138 -0.0000 -0.0000 0.0000 -0.0000 -0.0000 0.0000 -3.7454 7.4907 -31.6218 -4.4775 -8.3490 20.4869 0.0000 -5.2650 0.0000 1.5267 -3.0500 10.8009 -0.0000 -0.0000 0.0000 -0.0000 -0.0000 0.0000
 1.6884 34.6695 17.8181 0.9715 -1.5729 -0.6654 7.4039 13.8535 -0.1094 -1.3183 0.0000 -0.0000 0.2745 6.5834 15.0685 -11.7053 0.0000 -0.0000 10.2081 -29.6841 5.8287 -8.8785 0.0000 -0.0000 6.6281 8.6973 -27.3017 -13.4922 0.0000 0.0000 -15.9155 5.2157 0.9051 8.3553 -3.0022 1.1156 21.1948 2.4483 -2.9291 -4.1711 2.1903 0.2371 -2.0315 -1.3022 29.3263 -9.9349 -4.1145 -21.1775 0.0000 8.8457 -0.0000 15.7634 12.5539 -16.9676 -0.0000 -0.0000 0.0000 -0.0000 -0.0000 0.0000 -3.6997 7.4497 -31.7005 -4.6660 -8.4582 20.5781 0.0000 -5.1517 0.0000 1.6778 -2.9212 10.7496 -0.0000 0.0000 -0.0000 -0.0000 0.0000 -0.0000
 1.6860 34.6692 17.8099 0.9679 -1.5887 -0.6623 7.3946 13.8925 -0.1078 -1.3165 0.0000 -0.0000 0.2828 6.5475 15.0514 -11.7197 0.0000 -0.0000 10.1954 -29.6701 5.8254 -8.8789 0.0000 -0.0000 6.6368 8.6975 -27.3648 -13.4966 0.0000 -0.0000 -15.9349 5.2104 0.9114 8.3625 -3.0089 1.1140 21.2195 2.4600 -2.9449 -4.1295 2.1629 0.2551 -1.9996 -1.3266 29.3507 -9.8371 -4.1471 -21.1796 0.0000 9.2353 -0.0000 15.7798 11.2126 -17.1207 -0.0000 -0.0000 0.0000 -0.0000 -0.0000 0.0000 -3.6512 7.4618 -31.7355 -4.7911 -8.4507 20.5976 0.0000 -5.1852 0.0000 1.8819 -3.0455 10.7975 -0.0000 -0.0000 0.0000 -0.0000 -0.0000 0.0000
 1.6828 34.6705 17.8047 0.9649 -1.5901 -0.6601 7.3886 13.8825 -0.1019 -1.3167 -0.0000 -0.0000 0.2948 6.5461 15.0368 -11.6477 0.0000 -0.0000 10.1973 -29.6730 5.8303 -8.8785 -0.0000 -0.0000 6.6047 8.7051 -27.3846 -13.2482 0.0000 -0.0000 -15.9456 5.2140 0.9142 8.3618 -3.0061 1.1114 21.2344 2.4432 -2.9466 -4.1083 2.1188 0.2661 -1.9817 -1.3182 29.3368 -9.7105 -4.1799 -21.2022 0.0000 9.1444 -0.0000 15.7133 11.4480 -17.0460 -0.0000 0.0000 -0.0000 -0.0000 0.0000 -0.0000 -3.6131 7.4563 -31.7427 -4.7908 -8.4457 20.6062 0.0000 -5.1941 0.0000 1.8987 -3.0473 10.7997 -0.0000 0.0000 -0.0000 -0.0000 0.0000 -0.0000
 1.6803 34.6710 17.7980 0.9609 -1.5986 -0.6586 7.3781 13.8891 -0.0974 -1.3121 0.0000 -0.0000 0.3057 6.5458 15.0317 -11.6929 0.0000 0.0000 10.1918 -29.6767 5.8313 -8.8854 0.0000 -0.0000 6.6539 8.7388 -27.3128 -13.4640 0.0000 -0.0000 -15.9537 5.2151 0.9166 8.3667 -3.0058 1.1093 21.2445 2.4448 -2.9528 -4.1049 2.0996 0.2892 -1.9971 -1.3219 29.3335 -9.7044 -4.1841 -21.2122 0.0000 9.1478 -0.0000 15.7902 11.5138 -17.2551 -0.0000 -0.0000 0.0000 -0.0000 -0.0000 0.0000 -3.5625 7.4469 -31.7498 -4.7309 -8.4266 20.6274 0.0000 -5.1550 0.0000 1.7939 -3.0801 10.8156 -0.0000 0.0000 -0.0000 -0.0000 0.0000 -0.0000
 1.6759 34.6715 17.7888 0.9557 -1.6164 -0.6556 7.3516 13.9144 -0.0902 -1.2800 0.0000 -0.0000 0.3075 6.5430 14.9922 -11.7909 0.0000 -0.0000 10.1866 -29.6958 5.8432 -8.8897 0.0000 -0.0000 6.6732 8.7562 -27.3641 -13.5136 0.0000 0.0000 -15.9602 5.2240 0.9218 8.3863 -2.9990 1.1039 21.2524 2.4883 -2.9753 -4.1213 2.1191 0.3512 -2.0211 -1.3201 29.3194 -9.5028 -4.2304 -21.2309 0.0000 9.0784 -0.0000 15.5273 11.6333 -17.2194 -0.0000 -0.0000 0.0000 -0.0000 -0.0000 0.0000 -3.5788 7.4653 -31.7655 -4.7936 -8.4349 20.6344 0.0000 -5.2351 0.0000 1.9544 -3.0617 10.9186 -0.0000 0.0000 -0.0000 -0.0000 0.0000 -0.0000
 1.6712 34.6723 17.7768 0.9481 -1.6640 -0.6548 7.3015 13.9599 -0.0779 -1.1883 -0.0000 -0.0000 0.2728 6.5329 15.0407 -11.6986 0.0000 -0.0000 10.1427 -29.6029 5.8261 -8.8592 0.0000 0.0000 6.6701 8.6950 -27.4695 -13.5905 0.0000 -0.0000 -15.9737 5.2395 0.9331 8.4321 -2.9872 1.0956 21.2611 2.5125 -3.0146 -4.1578 2.0449 0.4477 -2.0647 -1.3129 29.3212 -9.5099 -4.2337 -21.2469 0.0000 9.1420 -0.0000 15.7596 11.4539 -17.3296 -0.0000 -0.0000 0.0000 -0.0000 -0.0000 0.0000 -3.6309 7.4883 -31.7771 -4.7249 -8.4220 20.6926 0.0000 -5.2007 0.0000 1.9300 -3.0450 10.6812 -0.0000 0.0000 -0.0000 -0.0000 0.0000 -0.0000
